<svg xmlns="http://www.w3.org/2000/svg" xmlns:xlink="http://www.w3.org/1999/xlink" version="1.1" x="0" y="0" viewBox="0 0 913.5 249" enable-background="new 0 0 913.5 249" xml:space="preserve">
  <g id="node">
    <g id="Layer_3"/>
    <path fill="#80BD01" d="M129 109.1c0-1.4-0.9-2.9-2-3.4L94.4 86.8c-0.6-0.3-1.2-0.6-1.7-0.6h-0.3c-0.6 0-1.2 0.3-1.7 0.6l-32.9 18.8c-1.2 0.6-2 2-2 3.4v50.5c0 0.6 0.3 1.4 0.9 1.7 0.6 0.3 1.4 0.3 2 0l19.4-11.1c1.2-0.9 2-2 2-3.4v-23.7c0-1.4 0.9-2.6 2-3.4l8.3-4.9c0.6-0.3 1.4-0.6 2-0.6 0.6 0 1.4 0.3 2 0.6l8.3 4.9c1.2 0.6 2 2 2 3.4v23.7c0 1.4 0.9 2.6 2 3.4l19.4 11.1c0.6 0.3 1.4 0.3 2 0 0.6-0.3 0.9-0.9 0.9-1.7V109.1z"/>
    <path fill="#80BD01" d="M302.9 39.7c-0.6-0.3-1.4-0.3-2 0 -0.6 0.3-0.9 0.9-0.9 1.7v50c0 0.6-0.3 0.9-0.6 1.2 -0.3 0.3-0.9 0.3-1.4 0l-8.3-4.6c-1.2-0.6-2.9-0.6-4 0l-32.5 18.8c-1.2 0.6-2 2-2 3.4V148c0 1.4 0.9 2.6 2 3.4l32.5 18.8c1.2 0.6 2.9 0.6 4 0l32.5-18.8c1.2-0.6 2-2 2-3.4V54c0-1.4-0.9-2.9-2-3.4L302.9 39.7zM299.8 135.4c0 0.3-0.3 0.6-0.6 0.9l-11.1 6.6c-0.3 0.3-0.6 0.3-0.9 0l-11.1-6.6c-0.3-0.3-0.6-0.6-0.6-0.9v-12.9c0-0.3 0.3-0.6 0.6-0.9l11.1-6.6c0.3-0.3 0.6-0.3 0.9 0l11.1 6.6c0.3 0.3 0.6 0.6 0.6 0.9V135.4z"/>
    <path fill="#80BD01" d="M419.4 122c1.2-0.6 2-2 2-3.4v-9.1c0-1.4-0.9-2.6-2-3.4l-32.3-18.6c-1.2-0.6-2.9-0.6-4 0l-32.5 18.8c-1.2 0.6-2 2-2 3.4v37.7c0 1.4 0.9 2.9 2 3.4l32.3 18.6c1.2 0.6 2.6 0.6 4 0l19.7-10.8c0.6-0.3 1.2-0.9 1.2-1.7 0-0.6-0.3-1.4-0.9-1.7L374 136.3c-0.6-0.3-0.9-1.2-0.9-1.7v-11.8c0-0.6 0.3-1.4 0.9-1.7l10.3-6c0.6-0.3 1.4-0.3 2 0l10.3 6c0.6 0.3 0.9 1.2 0.9 1.7v9.1c0 0.6 0.3 1.4 0.9 1.7s1.4 0.3 2 0L419.4 122z"/>
    <path fill="#80BD01" d="M188.1 87.1c1.2-0.6 2.9-0.6 4 0l32.6 18.8c1.2 0.6 2 2 2 3.4v37.7c0 1.4-0.9 2.6-2 3.4l-32.5 18.8c-1.2 0.6-2.9 0.6-4 0l-32.6-18.8c-1.2-0.6-2-2-2-3.4v-37.7c0-1.4 0.9-2.6 2-3.4L188.1 87.1z"/>
    <path fill="#80BD01" d="M384.5 120.3c0.3 0 0.6 0 0.9 0l6.3 3.7c0.3 0 0.3 0.3 0.3 0.6v7.1c0 0.3-0.3 0.6-0.3 0.6l-6.3 3.7c-0.3 0-0.6 0-0.9 0l-6.3-3.7c-0.3 0-0.3-0.3-0.3-0.6v-7.1c0-0.3 0.3-0.6 0.3-0.6L384.5 120.3z"/>
  </g>
  <g id="girls">
    <g id="g">
      <path fill="#050505" stroke="#000000" stroke-miterlimit="10" d="M526.2 194.3c1-0.5 1.8-1.8 1.8-3.1V105c0-1.3-0.8-2.6-1.8-3.1l-29.9-17.3c-1-0.5-2.6-0.5-3.7 0l-29.9 17.3c-1 0.8-1.8 1.8-1.8 3.1v34.6c0 1.3 0.8 2.6 1.8 3.1l29.9 17.3c1 0.5 2.6 0.5 3.7 0l7.6-4.2c0.5-0.3 1.1-0.3 1.3 0 0.3 0.3 0.5 0.5 0.5 1.1v45.8c0 0.8 0.3 1.3 0.8 1.6 0.5 0.3 1.3 0.3 1.8 0L526.2 194.3zM505.6 128.3c0 0.3-0.3 0.5-0.5 0.8l-10.2 6c-0.3 0.3-0.5 0.3-0.8 0l-10.2-6c-0.3-0.3-0.5-0.5-0.5-0.8v-11.8c0-0.3 0.3-0.5 0.5-0.8l10.2-6c0.3-0.3 0.5-0.3 0.8 0l10.2 6c0.3 0.3 0.5 0.5 0.5 0.8V128.3z"/>
      <path fill="#050505" stroke="#000000" stroke-miterlimit="10" d="M528.1 146.1c0-0.8-0.3-1.3-0.8-1.6 -0.5-0.3-1.3-0.3-1.8 0l-17.8 10.2c-1 0.8-1.8 1.8-1.8 3.1v21.7c0 1.3-0.8 2.6-1.8 3.1l-7.6 4.5c-0.5 0.3-1.3 0.5-1.8 0.5 -0.5 0-1.3-0.3-1.8-0.5l-7.6-4.5c-0.7-0.4-1.6-1.2-3.3-2.3l-1 0.6L461 192.4c0 1.3 0.8 2.6 1.8 3.1l30.2 17.3c0.5 0.3 1.1 0.5 1.6 0.5h0.3c0.5 0 1.1-0.3 1.6-0.5l29.9-17.3c1-0.5 1.8-1.8 1.8-3.1V146.1z"/>
    </g>
    <path id="i" fill="#050505" stroke="#000000" stroke-miterlimit="10" d="M590.9 121.7l-1.8 1 -9.4 5.5c-0.5 0.3-1.3 0.3-1.8 0l-9.4-5.5c-0.5-0.3-0.8-1.1-0.8-1.6v-10.8c0 0 0.1-12.2-0.1-13l-0.1-4.6 -2-1.3h-18.4c-1 0.5-1.9-0.4-1.9 2.9v38.8c0 1.3 0.8 2.6 1.8 3.1l29.9 17.3c1 0.5 2.6 0.5 3.7 0l24.5-14.1c1-0.8 1.5-1.5 1.5-2.8L590.9 121.7z"/>
    <path fill="#80BD01" d="M556.6 46.8c0.4-0.2 0.9-0.2 1.3 0l10.8 6.2c0.4 0.2 0.7 0.7 0.7 1.1v12.5c0 0.5-0.3 0.9-0.7 1.1L557.9 74c-0.4 0.2-0.9 0.2-1.3 0l-10.8-6.2c-0.4-0.2-0.7-0.7-0.7-1.1V54.2c0-0.5 0.3-0.9 0.7-1.1L556.6 46.8z"/>
    <g id="r">
      <path fill="#050505" stroke="#000000" stroke-miterlimit="10" d="M630.7 146.5c0 0.7-0.7 8-0.2 8.3 0.5 0.2 2.6 3.3 3.1 3l16.8 0c1-0.7 2.5-1.3 2.5-2.5l0.1-39.1c0-1.2 0.8-2.4 1.8-2.8l-22.3-11.6c-1 0.5-1.8 1.6-1.8 2.8V146.5z"/>
      <path fill="#050505" stroke="#000000" stroke-miterlimit="10" d="M678.6 90.5c-1.1 0-1.7 0.5-6.1 3.3l-5.1 3.1c-0.5 0.2-1.3 0.5-1.8 0.5 -0.5 0-1.3-0.3-1.8-0.6l-7.5-4.7c-0.7-0.5-1.6-1.2-3.3-2.4l-1 0.5 -20.1 12c0.7 1.5 0.7 1.5 1.7 2l29.7 18.1c0.5 0.3 1 0.5 1.6 0.6l0.3 0c0.5 0 1.1-0.2 1.6-0.5l29.2-16.2c1-0.5 0.3-2 0.3-3.3L678.6 90.5z"/>
    </g>
    <g id="l">
      <path fill="#050505" stroke="#000000" stroke-miterlimit="10" d="M705.4 143.4c0 1.3 0.8 2.6 1.8 3.1l29.9 17.3c0.5 0.3 1.1 0.5 1.6 0.5h0.3c0.5 0 1.1-0.3 1.6-0.5l30.2-17.3c1.1-0.5 1.8-1.8 1.8-3.1L752.7 132l-1-0.6c-1.7 1.1-2.7 1.8-3.3 2.3l-7.6 4.5c-0.5 0.3-1.3 0.5-1.8 0.5s-1.3-0.3-1.8-0.5l-7.6-4.5c-1.1-0.5-1.8-1.8-1.8-3.1v-21.7c0-1.3-0.8-2.4-1.8-3.1l-17.8-10.2c-0.5-0.3-1.3-0.3-1.8 0s-0.8 0.8-0.8 1.6V143.4z"/>
      <path fill="#050505" stroke="#000000" stroke-miterlimit="10" d="M726 136.2c1-0.5 1.8-1.7 1.8-2.9V54c0-1.2-0.8-2.4-1.8-2.9h-19.4c0.5-0.2-0.8 0-1.2 1.2 -0.1 0.3 0.1 48.9 0.1 49.4v42.2c0 0.7 0.3 1.2 0.8 1.4s1.3 0.2 1.8 0L726 136.2z"/>
    </g>
    <g id="s">
      <path fill="#050505" stroke="#000000" stroke-miterlimit="10" d="M854.9 105.4c0-1.3-0.8-2.6-1.8-3.1L823.2 85c-0.5-0.3-1.1-0.5-1.6-0.5h-0.3c-0.5 0-1.1 0.3-1.6 0.5l-30.2 17.3c-1.1 0.5-1.8 1.8-1.8 3.1l22.3 12.8c0-1.3 0.8-2.4 1.8-3.1l7.6-4.5c0.5-0.3 1.3-0.5 1.8-0.5s1.3 0.3 1.8 0.5l9.1 3.9c1.1 0.5 2.5 1.1 2.5 2.5L854.9 105.4z"/>
      <path fill="#050505" stroke="#000000" stroke-miterlimit="10" d="M788.1 104.8c-0.4 1.1-0.1 2.6 0.7 3.6l30.9 34.5c0.3 0.4 1.1 0.8 1.6 0.6 0.6-0.2 1.2-0.7 1.4-1.2l26 5.8c1.5-4.3-20.1-26.6-21-27.6L814 103.1c-0.9-1-1-2.3-0.7-3.6L788.1 104.8z"/>
      <path fill="#050505" stroke="#000000" stroke-miterlimit="10" d="M826.5 135.3c0 1.3-0.8 2.6-1.8 3.1l-7.6 4.5c-0.5 0.3-1.3 0.5-1.8 0.5 -0.5 0-1.3-0.3-1.8-0.5l-6.4-3.8c-3.3-1.4-4.4-1.7-4.4-3l-20.9 12c0 1.3 0.8 2.6 1.8 3.1l30.2 17.3c0.5 0.3 1.1 0.5 1.6 0.5h0.3c0.5 0 1.1-0.3 1.6-0.5l29.9-17.3c1-0.5 1.8-1.8 1.8-3.1L826.5 135.3z"/>
    </g>
  </g>
</svg>
