<?xml version="1.0" encoding="utf-8"?>
<!-- Generator: Adobe Illustrator 21.0.2, SVG Export Plug-In . SVG Version: 6.00 Build 0)  -->
<svg version="1.1" id="Capa_1" xmlns="http://www.w3.org/2000/svg" xmlns:xlink="http://www.w3.org/1999/xlink" x="0px" y="0px"
	 viewBox="0 0 529.1 192.3" style="enable-background:new 0 0 529.1 192.3;" xml:space="preserve">
<style type="text/css">
	.st0{fill:#00B5AC;}
	.st1{fill:#FFFFFF;}
</style>
<g id="XMLID_2_">
	<g id="XMLID_1_">
		<circle id="XMLID_83_" class="st0" cx="104.8" cy="96.1" r="60.1"/>
		<path id="XMLID_82_" class="st1" d="M116.2,132.3c11.8,0,21.3-9.6,21.3-21.3v-0.8h-13v0.8c0,4.6-3.8,8.4-8.4,8.4h-19L134.7,60
			H81.5l-7.4,13H111l-37.5,59.3H116.2L116.2,132.3z"/>
	</g>
	<g id="XMLID_45_">
		<rect id="XMLID_61_" x="235.7" y="72.9" width="14.8" height="46.4"/>
		<path id="XMLID_59_" d="M293.8,104.2l3.9,12.1c-3.1,2.1-7.8,4.2-13.6,4.2c-14.8,0-25.2-10.1-25.2-24.3s10.8-24.4,25.1-24.4
			c6,0,10.5,1.9,13.8,4.2l-4,12.5c-2.6-2.1-5.8-3.5-9.3-3.5c-7,0-10.9,4.9-10.9,11.1c0,6.8,4.6,11.4,11.4,11.4
			C288.5,107.5,291.7,105.9,293.8,104.2z"/>
		<rect id="XMLID_58_" x="350.3" y="72.9" width="14.8" height="46.4"/>
		<path id="XMLID_56_" d="M392.4,107.1h18.3v12.3h-36.8v-8.8l18-25.3h-17.6V72.9h36.2v8.9L392.4,107.1z"/>
		<rect id="XMLID_55_" x="419.6" y="72.9" width="14.8" height="46.4"/>
		<path id="XMLID_52_" d="M460.7,89.6c4.1,0,7.3,1,8.9,1.7v-1.7c0-2.8-2.3-5-7.1-5c-4.1,0-8,1.1-11.7,2.9l-5.5-9.9
			c5-3.3,11.2-5.7,18.9-5.7c16,0,20.1,8.2,20.1,18.8v28.7h-13.2l-0.8-2.6c-2.4,2.4-5.8,3.7-10.5,3.7c-9.1,0-17.2-5.5-17.2-15.6
			C442.6,95.7,449.7,89.6,460.7,89.6z M463.7,109.2c3.5,0,6.2-1.7,6.2-4.8c0-3.2-2.7-5-6.3-5c-3.5,0-6.2,1.9-6.2,5
			C457.4,107.5,460.2,109.2,463.7,109.2z"/>
		<g id="XMLID_49_">
			<path id="XMLID_50_" d="M330.3,85.2v34.2h-15.1V85.2h-10.8V72.9h36.8v12.2L330.3,85.2L330.3,85.2z"/>
		</g>
		<g id="XMLID_46_">
			<path id="XMLID_47_" d="M205.8,105.5v13.9h-14.7V72.9h35.8v12.2h-21.1v8.2h19.4v12.1h-19.4V105.5z"/>
		</g>
	</g>
</g>
</svg>
